<svg width="15" height="15" viewBox="0 0 15 15" fill="none" xmlns="http://www.w3.org/2000/svg">
<path d="M13.333 0.333984H1.30176C0.770508 0.333984 0.333008 0.802734 0.333008 1.36523V13.334C0.333008 13.8965 0.770508 14.334 1.30176 14.334H13.333C13.8643 14.334 14.333 13.8965 14.333 13.334V1.36523C14.333 0.802734 13.8643 0.333984 13.333 0.333984ZM4.55176 12.334H2.48926V5.67773H4.55176V12.334ZM3.52051 4.74023C2.83301 4.74023 2.30176 4.20898 2.30176 3.55273C2.30176 2.89648 2.83301 2.33398 3.52051 2.33398C4.17676 2.33398 4.70801 2.89648 4.70801 3.55273C4.70801 4.20898 4.17676 4.74023 3.52051 4.74023ZM12.333 12.334H10.2393V9.08398C10.2393 8.33398 10.2393 7.33398 9.17676 7.33398C8.08301 7.33398 7.92676 8.17773 7.92676 9.05273V12.334H5.86426V5.67773H7.83301V6.58398H7.86426C8.14551 6.05273 8.83301 5.49023 9.83301 5.49023C11.9268 5.49023 12.333 6.89648 12.333 8.67773V12.334Z" fill="white"/>
</svg>
