<svg width="15" height="15" viewBox="0 0 15 15" fill="none" xmlns="http://www.w3.org/2000/svg">
<path d="M7.33301 3.74023C5.33301 3.74023 3.73926 5.36523 3.73926 7.33398C3.73926 9.33398 5.33301 10.9277 7.33301 10.9277C9.30176 10.9277 10.9268 9.33398 10.9268 7.33398C10.9268 5.36523 9.30176 3.74023 7.33301 3.74023ZM7.33301 9.67773C6.05176 9.67773 4.98926 8.64648 4.98926 7.33398C4.98926 6.05273 6.02051 5.02148 7.33301 5.02148C8.61426 5.02148 9.64551 6.05273 9.64551 7.33398C9.64551 8.64648 8.61426 9.67773 7.33301 9.67773ZM11.8955 3.61523C11.8955 3.14648 11.5205 2.77148 11.0518 2.77148C10.583 2.77148 10.208 3.14648 10.208 3.61523C10.208 4.08398 10.583 4.45898 11.0518 4.45898C11.5205 4.45898 11.8955 4.08398 11.8955 3.61523ZM14.2705 4.45898C14.208 3.33398 13.958 2.33398 13.1455 1.52148C12.333 0.708984 11.333 0.458984 10.208 0.396484C9.05176 0.333984 5.58301 0.333984 4.42676 0.396484C3.30176 0.458984 2.33301 0.708984 1.48926 1.52148C0.676758 2.33398 0.426758 3.33398 0.364258 4.45898C0.301758 5.61523 0.301758 9.08398 0.364258 10.2402C0.426758 11.3652 0.676758 12.334 1.48926 13.1777C2.33301 13.9902 3.30176 14.2402 4.42676 14.3027C5.58301 14.3652 9.05176 14.3652 10.208 14.3027C11.333 14.2402 12.333 13.9902 13.1455 13.1777C13.958 12.334 14.208 11.3652 14.2705 10.2402C14.333 9.08398 14.333 5.61523 14.2705 4.45898ZM12.7705 11.459C12.5518 12.084 12.0518 12.5527 11.458 12.8027C10.5205 13.1777 8.33301 13.084 7.33301 13.084C6.30176 13.084 4.11426 13.1777 3.20801 12.8027C2.58301 12.5527 2.11426 12.084 1.86426 11.459C1.48926 10.5527 1.58301 8.36523 1.58301 7.33398C1.58301 6.33398 1.48926 4.14648 1.86426 3.20898C2.11426 2.61523 2.58301 2.14648 3.20801 1.89648C4.11426 1.52148 6.30176 1.61523 7.33301 1.61523C8.33301 1.61523 10.5205 1.52148 11.458 1.89648C12.0518 2.11523 12.5205 2.61523 12.7705 3.20898C13.1455 4.14648 13.0518 6.33398 13.0518 7.33398C13.0518 8.36523 13.1455 10.5527 12.7705 11.459Z" fill="white"/>
</svg>
