<svg width="17" height="14" viewBox="0 0 17 14" fill="none" xmlns="http://www.w3.org/2000/svg">
<path d="M14.6768 4.08398C15.3018 3.61523 15.8643 3.05273 16.3018 2.39648C15.7393 2.64648 15.083 2.83398 14.4268 2.89648C15.1143 2.49023 15.6143 1.86523 15.8643 1.08398C15.2393 1.45898 14.5205 1.74023 13.8018 1.89648C13.1768 1.24023 12.333 0.865234 11.3955 0.865234C9.58301 0.865234 8.11426 2.33398 8.11426 4.14648C8.11426 4.39648 8.14551 4.64648 8.20801 4.89648C5.48926 4.74023 3.05176 3.42773 1.42676 1.45898C1.14551 1.92773 0.989258 2.49023 0.989258 3.11523C0.989258 4.24023 1.55176 5.24023 2.45801 5.83398C1.92676 5.80273 1.39551 5.67773 0.958008 5.42773V5.45898C0.958008 7.05273 2.08301 8.36523 3.58301 8.67773C3.33301 8.74023 3.02051 8.80273 2.73926 8.80273C2.52051 8.80273 2.33301 8.77148 2.11426 8.74023C2.52051 10.0527 3.73926 10.9902 5.17676 11.0215C4.05176 11.8965 2.64551 12.4277 1.11426 12.4277C0.833008 12.4277 0.583008 12.3965 0.333008 12.3652C1.77051 13.3027 3.48926 13.834 5.36426 13.834C11.3955 13.834 14.6768 8.86523 14.6768 4.52148C14.6768 4.36523 14.6768 4.24023 14.6768 4.08398Z" fill="white"/>
</svg>
